<svg width="327" height="32" viewBox="0 0 327 32" fill="none" xmlns="http://www.w3.org/2000/svg">
<path opacity="0.75" d="M0 5.62158L15.5 14.4864L31 5.62158V23.3513L15.5 32L0 23.3513V5.62158Z" fill="#6C5DD3"/>
<path d="M3.01367 4.95215L12.0948 1.39961e-05L11.8464 4.07194L6.54912 6.96069L3.01367 4.95215Z" fill="#FFCE73"/>
<path d="M7.31934 7.54675L16.4004 2.59462L16.1521 6.66655L10.8548 9.55529L7.31934 7.54675Z" fill="#FFCE73"/>
<path d="M11.625 10.1414L20.7061 5.18922L20.4578 9.26115L15.1604 12.1499L11.625 10.1414Z" fill="#FFCE73"/>
<path d="M0 23.3513V5.62158L15.5 14.4864V32L0 23.3513Z" fill="#6C5DD3"/>
<path d="M40.517 6.54545V24H44.0966V12.5966H44.2415L48.7585 23.9148H51.196L55.7131 12.6392H55.858V24H59.4375V6.54545H54.8864L50.0795 18.2727H49.875L45.0682 6.54545H40.517ZM68.3757 24.2557C71.6143 24.2557 73.7962 22.679 74.3075 20.25L70.9496 20.0284C70.5831 21.0256 69.6456 21.5455 68.4354 21.5455C66.62 21.5455 65.4695 20.3438 65.4695 18.392V18.3835H74.3842V17.3864C74.3842 12.9375 71.6911 10.7386 68.2308 10.7386C64.3786 10.7386 61.8814 13.4744 61.8814 17.5142C61.8814 21.6648 64.3445 24.2557 68.3757 24.2557ZM65.4695 16.1335C65.5462 14.642 66.6797 13.4489 68.2905 13.4489C69.8672 13.4489 70.9581 14.5739 70.9666 16.1335H65.4695ZM76.7536 24H80.3842V16.142C80.3842 14.6932 81.3047 13.7301 82.5149 13.7301C83.7081 13.7301 84.5092 14.5483 84.5092 15.8352V24H88.0291V16.0057C88.0291 14.6506 88.8047 13.7301 90.1257 13.7301C91.2848 13.7301 92.1541 14.4545 92.1541 15.9119V24H95.7763V15.196C95.7763 12.358 94.0888 10.7386 91.6513 10.7386C89.7337 10.7386 88.2422 11.7188 87.7053 13.2188H87.5689C87.1513 11.7017 85.8132 10.7386 84.0149 10.7386C82.2507 10.7386 80.9126 11.6761 80.3672 13.2188H80.2138V10.9091H76.7536V24ZM104.559 24.2557C108.531 24.2557 111.002 21.5369 111.002 17.5057C111.002 13.4489 108.531 10.7386 104.559 10.7386C100.587 10.7386 98.1158 13.4489 98.1158 17.5057C98.1158 21.5369 100.587 24.2557 104.559 24.2557ZM104.576 21.4432C102.744 21.4432 101.806 19.7642 101.806 17.4801C101.806 15.196 102.744 13.5085 104.576 13.5085C106.374 13.5085 107.312 15.196 107.312 17.4801C107.312 19.7642 106.374 21.4432 104.576 21.4432ZM113.363 24H116.994V16.5938C116.994 14.983 118.17 13.875 119.772 13.875C120.275 13.875 120.965 13.9602 121.306 14.071V10.8494C120.982 10.7727 120.531 10.7216 120.164 10.7216C118.698 10.7216 117.496 11.5739 117.019 13.1932H116.883V10.9091H113.363V24ZM123.183 24H126.814V10.9091H123.183V24ZM125.007 9.22159C126.089 9.22159 126.976 8.39489 126.976 7.38068C126.976 6.375 126.089 5.54829 125.007 5.54829C123.933 5.54829 123.047 6.375 123.047 7.38068C123.047 8.39489 123.933 9.22159 125.007 9.22159ZM140.614 14.642C140.29 12.2301 138.347 10.7386 135.04 10.7386C131.691 10.7386 129.484 12.2898 129.492 14.8125C129.484 16.7727 130.719 18.0426 133.276 18.554L135.543 19.0057C136.685 19.2358 137.205 19.6534 137.222 20.3097C137.205 21.0852 136.362 21.6392 135.092 21.6392C133.796 21.6392 132.935 21.0852 132.714 20.0199L129.143 20.2074C129.484 22.7131 131.614 24.2557 135.083 24.2557C138.475 24.2557 140.904 22.5256 140.913 19.9432C140.904 18.0511 139.668 16.9176 137.129 16.3977L134.759 15.9205C133.54 15.6562 133.089 15.2386 133.097 14.608C133.089 13.8239 133.975 13.3125 135.1 13.3125C136.362 13.3125 137.112 14.0028 137.29 14.8466L140.614 14.642ZM149.165 24.2557C152.403 24.2557 154.585 22.679 155.097 20.25L151.739 20.0284C151.372 21.0256 150.435 21.5455 149.224 21.5455C147.409 21.5455 146.259 20.3438 146.259 18.392V18.3835H155.173V17.3864C155.173 12.9375 152.48 10.7386 149.02 10.7386C145.168 10.7386 142.67 13.4744 142.67 17.5142C142.67 21.6648 145.134 24.2557 149.165 24.2557ZM146.259 16.1335C146.335 14.642 147.469 13.4489 149.08 13.4489C150.656 13.4489 151.747 14.5739 151.756 16.1335H146.259ZM161.173 6.54545H157.543V24H161.173V6.54545ZM166.323 28.9091C169.025 28.9091 170.457 27.5284 171.198 25.4148L176.286 10.9261L172.442 10.9091L169.707 20.5227H169.57L166.86 10.9091H163.042L167.738 24.375L167.525 24.929C167.048 26.1562 166.136 26.2159 164.857 25.8239L164.039 28.5341C164.559 28.7557 165.403 28.9091 166.323 28.9091Z" fill="white"/>
</svg>
