<svg width="199" height="225" viewBox="0 0 199 225" fill="none" xmlns="http://www.w3.org/2000/svg">
<path d="M71.5 76L107.5 96.5L143.5 76V117L107.5 137L71.5 117V76Z" fill="#6C5DD3"/>
<path d="M78.5 74.4518L99.5916 63L99.0148 72.4163L86.7114 79.0966L78.5 74.4518Z" fill="#FFCE73"/>
<path d="M88.5 80.4518L109.592 69L109.015 78.4163L96.7114 85.0966L88.5 80.4518Z" fill="#FFCE73"/>
<path d="M98.5 86.4518L119.592 75L119.015 84.4163L106.711 91.0966L98.5 86.4518Z" fill="#FFCE73"/>
<path d="M71.5 117V76L107.5 96.5V137L71.5 117Z" fill="#CFC8FF"/>
<path d="M31.5039 182H30.5371L21.8359 162.084V180.242L25 180.717V182H16.6152V180.717L19.6387 180.242V160.168L16.6152 159.711V158.428H25.8789L32.6113 173.932L39.4844 158.428H48.9414V159.711L45.918 160.168V180.242L48.9414 180.717V182H37.2168V180.717L40.3809 180.242V162.084L31.5039 182ZM58.6797 165.072C60.918 165.072 62.5352 165.67 63.5312 166.865C64.5391 168.061 65.043 169.918 65.043 172.438V173.879H56.377V174.16C56.377 175.906 56.5176 177.148 56.7988 177.887C57.0801 178.625 57.5371 179.188 58.1699 179.574C58.8027 179.961 59.6699 180.154 60.7715 180.154C61.8027 180.154 63.1035 179.984 64.6738 179.645V180.998C64.0293 181.385 63.1914 181.707 62.1602 181.965C61.1406 182.211 60.1445 182.334 59.1719 182.334C56.4648 182.334 54.4609 181.631 53.1602 180.225C51.8711 178.807 51.2266 176.615 51.2266 173.65C51.2266 170.768 51.8418 168.617 53.0723 167.199C54.3145 165.781 56.1836 165.072 58.6797 165.072ZM58.4863 166.848C57.7832 166.848 57.2559 167.229 56.9043 167.99C56.5645 168.752 56.3945 170.1 56.3945 172.033H60.2266C60.2266 170.463 60.1738 169.361 60.0684 168.729C59.9629 168.084 59.7812 167.609 59.5234 167.305C59.2773 167 58.9316 166.848 58.4863 166.848ZM73.6211 166.918L74.8164 166.303C76.457 165.459 77.9277 165.037 79.2285 165.037C81.1973 165.037 82.5098 165.752 83.166 167.182C85.5684 165.752 87.5957 165.037 89.248 165.037C92.2246 165.037 93.7129 166.66 93.7129 169.906V180.418L95.3652 180.84V182H87.1562V180.84L88.6328 180.418V170.592C88.6328 169.607 88.4395 168.84 88.0527 168.289C87.6777 167.738 87.1035 167.463 86.3301 167.463C85.4629 167.463 84.5254 167.709 83.5176 168.201C83.6348 168.693 83.6934 169.262 83.6934 169.906V180.418L85.3457 180.84V182H77.1367V180.84L78.6133 180.418V170.592C78.6133 169.607 78.4199 168.84 78.0332 168.289C77.6582 167.738 77.084 167.463 76.3105 167.463C75.5371 167.463 74.6523 167.691 73.6562 168.148V180.418L75.168 180.84V182H66.959V180.84L68.5762 180.418V167.059L66.959 166.637V165.477H73.375L73.6211 166.918ZM112.609 173.65C112.609 176.615 111.971 178.807 110.693 180.225C109.428 181.643 107.488 182.352 104.875 182.352C102.344 182.352 100.457 181.637 99.2148 180.207C97.9727 178.766 97.3516 176.58 97.3516 173.65C97.3516 170.732 97.9785 168.57 99.2324 167.164C100.498 165.746 102.426 165.037 105.016 165.037C107.629 165.037 109.545 165.77 110.764 167.234C111.994 168.688 112.609 170.826 112.609 173.65ZM107.459 173.65C107.459 171.072 107.266 169.291 106.879 168.307C106.504 167.311 105.848 166.812 104.91 166.812C104.008 166.812 103.381 167.287 103.029 168.236C102.678 169.186 102.502 170.99 102.502 173.65C102.502 176.357 102.678 178.191 103.029 179.152C103.393 180.113 104.02 180.594 104.91 180.594C105.836 180.594 106.492 180.09 106.879 179.082C107.266 178.062 107.459 176.252 107.459 173.65ZM122.084 168.904C123.35 167.498 124.48 166.49 125.477 165.881C126.484 165.26 127.404 164.949 128.236 164.949H129.186V170.979H128.201L127.164 168.764C126.426 168.764 125.588 168.928 124.65 169.256C123.713 169.572 122.887 169.947 122.172 170.381V180.418L124.826 180.84V182H114.947V180.84L117.092 180.418V167.059L114.947 166.637V165.477H121.891L122.084 168.904ZM137.641 180.418L139.451 180.84V182H130.768V180.84L132.561 180.418V167.059L130.873 166.637V165.477H137.641V180.418ZM132.385 159.711C132.385 158.949 132.648 158.311 133.176 157.795C133.715 157.279 134.354 157.021 135.092 157.021C135.842 157.021 136.475 157.285 136.99 157.812C137.518 158.328 137.781 158.961 137.781 159.711C137.781 160.449 137.523 161.088 137.008 161.627C136.492 162.154 135.854 162.418 135.092 162.418C134.342 162.418 133.703 162.16 133.176 161.645C132.648 161.117 132.385 160.473 132.385 159.711ZM153.127 176.762C153.127 178.602 152.559 179.996 151.422 180.945C150.297 181.883 148.656 182.352 146.5 182.352C145.609 182.352 144.625 182.252 143.547 182.053C142.48 181.865 141.672 181.666 141.121 181.455V176.955H142.281L142.949 179.275C143.359 179.686 143.898 180.031 144.566 180.312C145.234 180.582 145.914 180.717 146.605 180.717C147.625 180.717 148.381 180.5 148.873 180.066C149.377 179.621 149.629 179.059 149.629 178.379C149.629 177.734 149.389 177.219 148.908 176.832C148.428 176.445 147.379 176 145.762 175.496C144.062 174.969 142.855 174.248 142.141 173.334C141.438 172.42 141.086 171.295 141.086 169.959C141.086 168.459 141.643 167.264 142.756 166.373C143.869 165.482 145.305 165.037 147.062 165.037C148.27 165.037 149.893 165.207 151.932 165.547V169.783H150.771L150.209 167.85C149.869 167.51 149.389 167.234 148.768 167.023C148.158 166.801 147.578 166.689 147.027 166.689C146.184 166.689 145.557 166.865 145.146 167.217C144.748 167.557 144.549 168.025 144.549 168.623C144.549 169.244 144.801 169.754 145.305 170.152C145.809 170.551 146.846 170.984 148.416 171.453C150.127 171.98 151.34 172.678 152.055 173.545C152.77 174.4 153.127 175.473 153.127 176.762ZM162.707 165.072C164.945 165.072 166.562 165.67 167.559 166.865C168.566 168.061 169.07 169.918 169.07 172.438V173.879H160.404V174.16C160.404 175.906 160.545 177.148 160.826 177.887C161.107 178.625 161.564 179.188 162.197 179.574C162.83 179.961 163.697 180.154 164.799 180.154C165.83 180.154 167.131 179.984 168.701 179.645V180.998C168.057 181.385 167.219 181.707 166.188 181.965C165.168 182.211 164.172 182.334 163.199 182.334C160.492 182.334 158.488 181.631 157.188 180.225C155.898 178.807 155.254 176.615 155.254 173.65C155.254 170.768 155.869 168.617 157.1 167.199C158.342 165.781 160.211 165.072 162.707 165.072ZM162.514 166.848C161.811 166.848 161.283 167.229 160.932 167.99C160.592 168.752 160.422 170.1 160.422 172.033H164.254C164.254 170.463 164.201 169.361 164.096 168.729C163.99 168.084 163.809 167.609 163.551 167.305C163.305 167 162.959 166.848 162.514 166.848ZM177.596 180.418L179.406 180.84V182H170.723V180.84L172.516 180.418V158.604L170.828 158.182V157.021H177.596V180.418ZM188.16 182.51L181.551 167.059L180.391 166.637V165.477H188.846V166.637L186.877 167.094L190.762 176.234L194.225 167.059L192.291 166.637V165.477H197.688V166.637L196.492 166.988L189.971 183.037C189.221 184.947 188.564 186.33 188.002 187.186C187.439 188.053 186.812 188.697 186.121 189.119C185.441 189.553 184.662 189.77 183.783 189.77C182.834 189.77 181.867 189.658 180.883 189.436V185.182H181.938L182.693 187.396C183.033 187.666 183.467 187.801 183.994 187.801C184.439 187.801 184.832 187.695 185.172 187.484C185.512 187.273 185.828 186.969 186.121 186.57C186.426 186.172 186.713 185.68 186.982 185.094C187.252 184.52 187.645 183.658 188.16 182.51Z" fill="#11142D"/>
<g clip-path="url(#clip0_33661_7414)">
<path fill-rule="evenodd" clip-rule="evenodd" d="M40.1454 38.8425C40.0737 38.6629 40.0102 38.4837 39.9551 38.3027C39.8723 38.0312 39.8263 37.7495 39.7584 37.4748C39.7294 37.3583 39.6493 37.0555 39.6455 37.0103C39.6139 36.616 39.9106 36.4904 39.9988 36.4604C40.0412 36.4447 40.4798 36.2973 40.6846 36.7748C40.9353 37.3586 41.1061 37.964 41.1939 38.5742C41.4026 39.064 41.6806 39.5367 42.002 39.9495C43.2807 41.5914 45.0011 41.4059 46.8197 40.9953C47.099 40.9305 47.3792 41.1001 47.4541 41.3755C47.5294 41.653 47.3734 41.9411 47.0998 42.0265C46.1025 42.3451 44.472 43.5526 44.031 44.538C43.9388 44.7443 43.9556 45.1901 43.946 45.6328C43.932 46.2475 43.89 46.8617 43.7555 47.145C43.7356 47.1888 43.4777 47.648 43.3881 47.7265C43.1725 47.9134 42.9599 47.8783 42.8333 47.8311C42.7067 47.7839 42.5505 47.6708 42.4499 47.4492C42.3448 47.2176 42.2815 46.7095 42.2502 46.6044C42.1367 46.2234 41.8949 45.4798 41.5955 44.8605C41.4342 44.5271 41.2731 44.2221 41.0879 44.0933C40.4022 43.6167 39.531 43.8971 38.8027 44.1576C38.7189 44.1867 38.6355 44.2178 38.5519 44.2469C38.2662 44.4029 37.9566 44.54 37.6228 44.6538C37.1188 44.8263 36.931 44.3692 36.9196 44.3388C36.895 44.2718 36.7822 43.9235 37.1412 43.6968C37.1806 43.6729 37.4794 43.536 37.5944 43.4826C37.7546 43.4085 37.9186 43.3424 38.0836 43.2782C39.7304 42.3479 40.3561 40.5991 40.1454 38.8425ZM41.1629 40.6154C42.1272 41.8495 43.2826 42.2969 44.5467 42.3394L44.5465 42.3395C43.8826 42.8929 43.3076 43.5302 43.0531 44.1004C42.9564 44.3165 42.9118 44.7185 42.8895 45.164C42.7435 44.7856 42.5704 44.3867 42.3839 44.0543C42.1715 43.6749 41.9308 43.374 41.7001 43.2134C41.2548 42.9041 40.7545 42.7864 40.2436 42.785C40.7158 42.1415 41.0191 41.4007 41.1629 40.6154Z" fill="#6C5DD3"/>
</g>
<g clip-path="url(#clip1_33661_7414)">
<path fill-rule="evenodd" clip-rule="evenodd" d="M176.721 113.78C176.676 113.659 176.636 113.539 176.602 113.418C176.55 113.235 176.523 113.047 176.482 112.863C176.464 112.785 176.415 112.582 176.413 112.552C176.397 112.289 176.597 112.209 176.656 112.19C176.685 112.18 176.979 112.088 177.109 112.409C177.268 112.802 177.373 113.208 177.424 113.616C177.556 113.945 177.735 114.264 177.943 114.543C178.773 115.655 179.922 115.556 181.14 115.307C181.327 115.268 181.511 115.385 181.557 115.569C181.604 115.755 181.496 115.945 181.312 115.998C180.643 116.197 179.54 116.979 179.232 117.63C179.168 117.766 179.173 118.063 179.16 118.358C179.143 118.768 179.106 119.177 179.013 119.364C178.999 119.393 178.82 119.695 178.76 119.746C178.613 119.868 178.472 119.841 178.388 119.808C178.305 119.775 178.202 119.697 178.138 119.548C178.071 119.392 178.036 119.053 178.017 118.982C177.946 118.727 177.795 118.228 177.604 117.811C177.502 117.587 177.398 117.381 177.277 117.293C176.826 116.966 176.242 117.14 175.753 117.304C175.696 117.322 175.64 117.342 175.584 117.36C175.392 117.46 175.183 117.547 174.959 117.618C174.621 117.726 174.502 117.419 174.495 117.399C174.48 117.354 174.409 117.12 174.652 116.974C174.678 116.959 174.879 116.871 174.957 116.837C175.064 116.79 175.175 116.748 175.286 116.708C176.396 116.111 176.837 114.954 176.721 113.78ZM177.375 114.976C178 115.812 178.764 116.126 179.606 116.171L179.606 116.171C179.156 116.531 178.764 116.948 178.586 117.325C178.519 117.467 178.484 117.735 178.463 118.031C178.371 117.777 178.261 117.509 178.141 117.285C178.005 117.029 177.848 116.825 177.697 116.715C177.404 116.502 177.073 116.417 176.732 116.409C177.056 115.987 177.268 115.497 177.375 114.976Z" fill="#6C5DD3"/>
</g>
<path fill-rule="evenodd" clip-rule="evenodd" d="M3.16886 117.577C3.14743 117.449 3.13129 117.324 3.12086 117.198C3.10514 117.009 3.11486 116.819 3.10929 116.631C3.10686 116.551 3.09729 116.342 3.10114 116.312C3.13614 116.051 3.34714 116.011 3.40886 116.004C3.43871 115.999 3.74528 115.965 3.81143 116.305C3.89257 116.721 3.91857 117.139 3.88986 117.549C3.95686 117.898 4.07143 118.245 4.22272 118.559C4.82472 119.809 5.97186 119.931 7.21471 119.919C7.40585 119.917 7.56458 120.067 7.57458 120.257C7.58458 120.448 7.44229 120.614 7.252 120.631C6.55729 120.698 5.32471 121.255 4.89857 121.835C4.80942 121.957 4.75757 122.249 4.689 122.537C4.59328 122.935 4.47943 123.329 4.35186 123.495C4.33272 123.521 4.1 123.784 4.03057 123.822C3.86371 123.914 3.73014 123.861 3.65429 123.812C3.57843 123.764 3.49257 123.668 3.45829 123.509C3.42243 123.344 3.45271 123.004 3.44714 122.931C3.42686 122.667 3.374 122.148 3.26615 121.702C3.208 121.462 3.146 121.241 3.04343 121.131C2.66372 120.724 2.05657 120.784 1.54529 120.851C1.48657 120.858 1.42786 120.867 1.36929 120.874C1.16115 120.935 0.94014 120.981 0.706568 121.008C0.353854 121.049 0.295858 120.725 0.292715 120.704C0.286144 120.657 0.261713 120.414 0.52757 120.317C0.55657 120.307 0.770572 120.259 0.853001 120.241C0.967858 120.215 1.084 120.195 1.20057 120.177C2.40471 119.802 3.05871 118.751 3.16886 117.577ZM3.58214 118.875C4.03672 119.815 4.72657 120.269 5.54428 120.475H5.54415C5.03357 120.742 4.56914 121.077 4.323 121.412C4.22957 121.539 4.14386 121.795 4.06657 122.082C4.02471 121.815 3.96815 121.531 3.89343 121.288C3.80843 121.011 3.694 120.781 3.56628 120.644C3.31971 120.379 3.01028 120.232 2.67757 120.159C3.07585 119.807 3.37786 119.367 3.58214 118.875Z" fill="#FFCE73"/>
<g clip-path="url(#clip2_33661_7414)">
<path fill-rule="evenodd" clip-rule="evenodd" d="M189.587 212.762C189.617 212.571 189.655 212.384 189.7 212.2C189.768 211.925 189.873 211.66 189.956 211.389C189.991 211.274 190.077 210.973 190.097 210.932C190.272 210.578 190.592 210.622 190.683 210.641C190.727 210.65 191.179 210.748 191.11 211.263C191.026 211.893 190.862 212.5 190.624 213.069C190.552 213.597 190.548 214.145 190.613 214.664C190.868 216.729 192.44 217.453 194.212 218.033C194.485 218.121 194.638 218.41 194.561 218.685C194.484 218.962 194.202 219.129 193.923 219.062C192.904 218.824 190.885 219.024 190.001 219.644C189.816 219.774 189.601 220.165 189.366 220.54C189.039 221.06 188.688 221.566 188.427 221.74C188.387 221.768 187.93 222.03 187.813 222.051C187.532 222.101 187.368 221.962 187.283 221.856C187.199 221.751 187.123 221.574 187.15 221.332C187.179 221.079 187.385 220.61 187.412 220.504C187.51 220.119 187.684 219.357 187.744 218.671C187.777 218.302 187.795 217.958 187.702 217.752C187.358 216.992 186.466 216.785 185.708 216.635C185.621 216.617 185.533 216.601 185.447 216.583C185.121 216.571 184.785 216.53 184.44 216.456C183.919 216.346 183.992 215.857 183.998 215.825C184.012 215.755 184.093 215.398 184.518 215.388C184.564 215.387 184.891 215.423 185.017 215.436C185.192 215.455 185.367 215.482 185.541 215.512C187.432 215.558 188.866 214.377 189.587 212.762ZM189.551 214.805C189.745 216.359 190.508 217.336 191.571 218.021L191.571 218.021C190.717 218.155 189.897 218.408 189.386 218.767C189.192 218.902 188.947 219.225 188.7 219.596C188.768 219.196 188.824 218.765 188.835 218.384C188.847 217.949 188.795 217.567 188.679 217.311C188.456 216.817 188.086 216.459 187.649 216.196C188.384 215.886 189.024 215.406 189.551 214.805Z" fill="#CFD0D5"/>
</g>
<g clip-path="url(#clip3_33661_7414)">
<path fill-rule="evenodd" clip-rule="evenodd" d="M147.772 5.3388C147.83 5.08747 147.896 4.84286 147.973 4.6026C148.089 4.24215 148.252 3.8985 148.386 3.54581C148.443 3.39614 148.585 3.00344 148.615 2.95097C148.88 2.49472 149.3 2.58234 149.42 2.61639C149.478 2.63132 150.071 2.8027 149.933 3.48155C149.765 4.31177 149.492 5.10506 149.125 5.84062C148.982 6.53596 148.928 7.26507 148.967 7.96159C149.122 10.7321 151.149 11.8346 153.454 12.765C153.81 12.906 153.988 13.3047 153.861 13.6634C153.733 14.0247 153.343 14.222 152.978 14.108C151.643 13.7002 148.939 13.7861 147.708 14.5315C147.45 14.6876 147.13 15.189 146.784 15.6671C146.302 16.3302 145.79 16.9716 145.427 17.1801C145.372 17.213 144.741 17.5205 144.583 17.5386C144.205 17.5798 143.998 17.3799 143.895 17.232C143.792 17.0842 143.707 16.8416 143.765 16.5224C143.826 16.1888 144.142 15.5837 144.188 15.4449C144.352 14.941 144.652 13.9424 144.794 13.0363C144.87 12.5483 144.925 12.0917 144.82 11.81C144.43 10.767 143.262 10.4131 142.266 10.1457C142.152 10.114 142.037 10.0849 141.923 10.0532C141.492 10.0074 141.048 9.92264 140.596 9.79398C139.912 9.60051 140.054 8.95693 140.064 8.91493C140.088 8.82279 140.229 8.35538 140.794 8.37942C140.856 8.38314 141.287 8.45986 141.454 8.48865C141.686 8.52906 141.915 8.58103 142.145 8.63596C144.657 8.86623 146.67 7.42418 147.772 5.3388ZM147.542 8.05456C147.662 10.1394 148.589 11.5069 149.942 12.513L149.942 12.5129C148.794 12.6156 147.68 12.8777 146.968 13.3096C146.698 13.473 146.344 13.8798 145.982 14.3512C146.109 13.8255 146.222 13.257 146.27 12.751C146.325 12.1739 146.29 11.6613 146.159 11.3102C145.905 10.6331 145.446 10.1243 144.887 9.73501C145.893 9.38795 146.788 8.80617 147.542 8.05456Z" fill="#FFCE73"/>
</g>
<defs>
<clipPath id="clip0_33661_7414">
<rect width="12" height="12" fill="white" transform="translate(35 37.5353) rotate(-12.197)"/>
</clipPath>
<clipPath id="clip1_33661_7414">
<rect width="8" height="8" fill="white" transform="translate(173.31 112.838) rotate(-11.0104)"/>
</clipPath>
<clipPath id="clip2_33661_7414">
<rect width="12" height="12" fill="white" transform="translate(185.84 209) rotate(18.6634)"/>
</clipPath>
<clipPath id="clip3_33661_7414">
<rect width="16" height="16" fill="white" transform="translate(143.125) rotate(22.5058)"/>
</clipPath>
</defs>
</svg>
