<svg width="36" height="36" viewBox="0 0 36 36" fill="none" xmlns="http://www.w3.org/2000/svg">
<rect width="36" height="36" rx="12" fill="white"/>
<g clip-path="url(#clip0_33661_1194)">
<path d="M27.8052 18.2303C27.8052 17.5506 27.7501 16.8671 27.6325 16.1984H18.2002V20.0492H23.6016C23.3775 21.2911 22.6573 22.3898 21.6027 23.0879V25.5866H24.8252C26.7176 23.8449 27.8052 21.2728 27.8052 18.2303Z" fill="#4285F4"/>
<path d="M18.1999 28.0007C20.897 28.0007 23.1714 27.1152 24.8286 25.5866L21.6061 23.088C20.7096 23.6979 19.5521 24.0433 18.2036 24.0433C15.5947 24.0433 13.3827 22.2833 12.589 19.9169H9.26367V22.4927C10.9613 25.8695 14.4189 28.0007 18.1999 28.0007Z" fill="#34A853"/>
<path d="M12.5856 19.9169C12.1668 18.675 12.1668 17.3301 12.5856 16.0882V13.5124H9.26395C7.84561 16.338 7.84561 19.6671 9.26395 22.4927L12.5856 19.9169Z" fill="#FBBC04"/>
<path d="M18.1999 11.9581C19.6256 11.936 21.0035 12.4725 22.036 13.4572L24.8911 10.6022C23.0833 8.90459 20.6838 7.97128 18.1999 8.00067C14.4189 8.00067 10.9613 10.1319 9.26367 13.5123L12.5854 16.0881C13.3754 13.7181 15.5911 11.9581 18.1999 11.9581Z" fill="#EA4335"/>
</g>
<defs>
<clipPath id="clip0_33661_1194">
<rect width="20" height="20" fill="white" transform="translate(8 8)"/>
</clipPath>
</defs>
</svg>
