<svg width="21" height="24" viewBox="0 0 21 24" fill="none" xmlns="http://www.w3.org/2000/svg">
<path d="M19.792 18.7035C19.429 19.542 18.9994 20.3139 18.5016 21.0235C17.8231 21.9908 17.2676 22.6605 16.8395 23.0323C16.1758 23.6427 15.4647 23.9552 14.7032 23.973C14.1566 23.973 13.4973 23.8175 12.73 23.5019C11.9601 23.1878 11.2525 23.0323 10.6056 23.0323C9.92709 23.0323 9.19941 23.1878 8.42106 23.5019C7.64153 23.8175 7.01355 23.9819 6.53342 23.9982C5.80322 24.0293 5.07539 23.7078 4.3489 23.0323C3.88521 22.6279 3.30523 21.9346 2.61043 20.9524C1.86498 19.9035 1.25211 18.6872 0.771975 17.3006C0.25777 15.8029 0 14.3526 0 12.9485C0 11.3401 0.347544 9.95284 1.04367 8.79035C1.59076 7.8566 2.31859 7.12003 3.22953 6.57931C4.14046 6.03858 5.12473 5.76304 6.18469 5.74541C6.76467 5.74541 7.52524 5.92481 8.4704 6.27739C9.41288 6.63116 10.0181 6.81056 10.2834 6.81056C10.4817 6.81056 11.154 6.60079 12.2937 6.18258C13.3714 5.79474 14.281 5.63415 15.0262 5.69741C17.0454 5.86037 18.5624 6.65634 19.5712 8.09037C17.7654 9.18456 16.8721 10.7171 16.8898 12.6831C16.9061 14.2145 17.4617 15.4888 18.5535 16.5006C19.0483 16.9703 19.6009 17.3332 20.2156 17.591C20.0823 17.9776 19.9416 18.348 19.792 18.7035ZM15.161 0.480381C15.161 1.68066 14.7225 2.80135 13.8484 3.83865C12.7937 5.0718 11.5179 5.78437 10.1343 5.67193C10.1167 5.52793 10.1065 5.37638 10.1065 5.21713C10.1065 4.06487 10.6081 2.83172 11.4989 1.82345C11.9436 1.31295 12.5092 0.888472 13.1951 0.54986C13.8796 0.216299 14.5269 0.0318332 15.1358 0.000244141C15.1536 0.160702 15.161 0.32117 15.161 0.480365V0.480381Z" fill="white"/>
</svg>
