<svg width="123" height="24" viewBox="0 0 123 24" fill="none" xmlns="http://www.w3.org/2000/svg">
<path d="M0 4.21622L11.5 10.8649L23 4.21622V17.5135L11.5 24L0 17.5135V4.21622Z" fill="#A79EE5"/>
<path d="M2.23633 3.71413L8.97393 2.50448e-05L8.78967 3.05397L4.8594 5.22053L2.23633 3.71413Z" fill="#FFCE73"/>
<path d="M5.43066 5.66006L12.1683 1.94596L11.984 4.99991L8.05374 7.16647L5.43066 5.66006Z" fill="#FFCE73"/>
<path d="M8.625 7.60602L15.3626 3.89192L15.1783 6.94586L11.2481 9.11242L8.625 7.60602Z" fill="#FFCE73"/>
<path d="M0 17.5135V4.21622L11.5 10.8649V24L0 17.5135Z" fill="#6C5DD3"/>
<path d="M38.752 18H38.2686L33.918 8.04199V17.1211L35.5 17.3584V18H31.3076V17.3584L32.8193 17.1211V7.08398L31.3076 6.85547V6.21387H35.9395L39.3057 13.9658L42.7422 6.21387H47.4707V6.85547L45.959 7.08398V17.1211L47.4707 17.3584V18H41.6084V17.3584L43.1904 17.1211V8.04199L38.752 18ZM52.3398 9.53613C53.459 9.53613 54.2676 9.83496 54.7656 10.4326C55.2695 11.0303 55.5215 11.959 55.5215 13.2188V13.9395H51.1885V14.0801C51.1885 14.9531 51.2588 15.5742 51.3994 15.9434C51.54 16.3125 51.7686 16.5938 52.085 16.7871C52.4014 16.9805 52.835 17.0771 53.3857 17.0771C53.9014 17.0771 54.5518 16.9922 55.3369 16.8223V17.499C55.0146 17.6924 54.5957 17.8535 54.0801 17.9824C53.5703 18.1055 53.0723 18.167 52.5859 18.167C51.2324 18.167 50.2305 17.8154 49.5801 17.1123C48.9355 16.4033 48.6133 15.3076 48.6133 13.8252C48.6133 12.3838 48.9209 11.3086 49.5361 10.5996C50.1572 9.89062 51.0918 9.53613 52.3398 9.53613ZM52.2432 10.4238C51.8916 10.4238 51.6279 10.6143 51.4521 10.9951C51.2822 11.376 51.1973 12.0498 51.1973 13.0166H53.1133C53.1133 12.2314 53.0869 11.6807 53.0342 11.3643C52.9814 11.042 52.8906 10.8047 52.7617 10.6523C52.6387 10.5 52.4658 10.4238 52.2432 10.4238ZM59.8105 10.459L60.4082 10.1514C61.2285 9.72949 61.9639 9.51855 62.6143 9.51855C63.5986 9.51855 64.2549 9.87598 64.583 10.5908C65.7842 9.87598 66.7979 9.51855 67.624 9.51855C69.1123 9.51855 69.8564 10.3301 69.8564 11.9531V17.209L70.6826 17.4199V18H66.5781V17.4199L67.3164 17.209V12.2959C67.3164 11.8037 67.2197 11.4199 67.0264 11.1445C66.8389 10.8691 66.5518 10.7314 66.165 10.7314C65.7314 10.7314 65.2627 10.8545 64.7588 11.1006C64.8174 11.3467 64.8467 11.6309 64.8467 11.9531V17.209L65.6729 17.4199V18H61.5684V17.4199L62.3066 17.209V12.2959C62.3066 11.8037 62.21 11.4199 62.0166 11.1445C61.8291 10.8691 61.542 10.7314 61.1553 10.7314C60.7686 10.7314 60.3262 10.8457 59.8281 11.0742V17.209L60.584 17.4199V18H56.4795V17.4199L57.2881 17.209V10.5293L56.4795 10.3184V9.73828H59.6875L59.8105 10.459ZM79.3047 13.8252C79.3047 15.3076 78.9854 16.4033 78.3467 17.1123C77.7139 17.8213 76.7441 18.1758 75.4375 18.1758C74.1719 18.1758 73.2285 17.8184 72.6074 17.1035C71.9863 16.3828 71.6758 15.29 71.6758 13.8252C71.6758 12.3662 71.9893 11.2852 72.6162 10.582C73.249 9.87305 74.2129 9.51855 75.5078 9.51855C76.8145 9.51855 77.7725 9.88477 78.3818 10.6172C78.9971 11.3438 79.3047 12.4131 79.3047 13.8252ZM76.7295 13.8252C76.7295 12.5361 76.6328 11.6455 76.4395 11.1533C76.252 10.6553 75.9238 10.4062 75.4551 10.4062C75.0039 10.4062 74.6904 10.6436 74.5146 11.1182C74.3389 11.5928 74.251 12.4951 74.251 13.8252C74.251 15.1787 74.3389 16.0957 74.5146 16.5762C74.6963 17.0566 75.0098 17.2969 75.4551 17.2969C75.918 17.2969 76.2461 17.0449 76.4395 16.541C76.6328 16.0312 76.7295 15.126 76.7295 13.8252ZM84.042 11.4521C84.6748 10.749 85.2402 10.2451 85.7383 9.94043C86.2422 9.62988 86.7021 9.47461 87.1182 9.47461H87.5928V12.4893H87.1006L86.582 11.3818C86.2129 11.3818 85.7939 11.4639 85.3252 11.6279C84.8564 11.7861 84.4434 11.9736 84.0859 12.1904V17.209L85.4131 17.4199V18H80.4736V17.4199L81.5459 17.209V10.5293L80.4736 10.3184V9.73828H83.9453L84.042 11.4521ZM91.8203 17.209L92.7256 17.4199V18H88.3838V17.4199L89.2803 17.209V10.5293L88.4365 10.3184V9.73828H91.8203V17.209ZM89.1924 6.85547C89.1924 6.47461 89.3242 6.15527 89.5879 5.89746C89.8574 5.63965 90.1768 5.51074 90.5459 5.51074C90.9209 5.51074 91.2373 5.64258 91.4951 5.90625C91.7588 6.16406 91.8906 6.48047 91.8906 6.85547C91.8906 7.22461 91.7617 7.54395 91.5039 7.81348C91.2461 8.07715 90.9268 8.20898 90.5459 8.20898C90.1709 8.20898 89.8516 8.08008 89.5879 7.82227C89.3242 7.55859 89.1924 7.23633 89.1924 6.85547ZM99.5635 15.3809C99.5635 16.3008 99.2793 16.998 98.7109 17.4727C98.1484 17.9414 97.3281 18.1758 96.25 18.1758C95.8047 18.1758 95.3125 18.126 94.7734 18.0264C94.2402 17.9326 93.8359 17.833 93.5605 17.7275V15.4775H94.1406L94.4746 16.6377C94.6797 16.8428 94.9492 17.0156 95.2832 17.1562C95.6172 17.291 95.957 17.3584 96.3027 17.3584C96.8125 17.3584 97.1904 17.25 97.4365 17.0332C97.6885 16.8105 97.8145 16.5293 97.8145 16.1895C97.8145 15.8672 97.6943 15.6094 97.4541 15.416C97.2139 15.2227 96.6895 15 95.8809 14.748C95.0312 14.4844 94.4277 14.124 94.0703 13.667C93.7188 13.21 93.543 12.6475 93.543 11.9795C93.543 11.2295 93.8213 10.6318 94.3779 10.1865C94.9346 9.74121 95.6523 9.51855 96.5312 9.51855C97.1348 9.51855 97.9463 9.60352 98.9658 9.77344V11.8916H98.3857L98.1045 10.9248C97.9346 10.7549 97.6943 10.6172 97.3838 10.5117C97.0791 10.4004 96.7891 10.3447 96.5137 10.3447C96.0918 10.3447 95.7783 10.4326 95.5732 10.6084C95.374 10.7783 95.2744 11.0127 95.2744 11.3115C95.2744 11.6221 95.4004 11.877 95.6523 12.0762C95.9043 12.2754 96.4229 12.4922 97.208 12.7266C98.0635 12.9902 98.6699 13.3389 99.0273 13.7725C99.3848 14.2002 99.5635 14.7363 99.5635 15.3809ZM104.354 9.53613C105.473 9.53613 106.281 9.83496 106.779 10.4326C107.283 11.0303 107.535 11.959 107.535 13.2188V13.9395H103.202V14.0801C103.202 14.9531 103.272 15.5742 103.413 15.9434C103.554 16.3125 103.782 16.5938 104.099 16.7871C104.415 16.9805 104.849 17.0771 105.399 17.0771C105.915 17.0771 106.565 16.9922 107.351 16.8223V17.499C107.028 17.6924 106.609 17.8535 106.094 17.9824C105.584 18.1055 105.086 18.167 104.6 18.167C103.246 18.167 102.244 17.8154 101.594 17.1123C100.949 16.4033 100.627 15.3076 100.627 13.8252C100.627 12.3838 100.935 11.3086 101.55 10.5996C102.171 9.89062 103.105 9.53613 104.354 9.53613ZM104.257 10.4238C103.905 10.4238 103.642 10.6143 103.466 10.9951C103.296 11.376 103.211 12.0498 103.211 13.0166H105.127C105.127 12.2314 105.101 11.6807 105.048 11.3643C104.995 11.042 104.904 10.8047 104.775 10.6523C104.652 10.5 104.479 10.4238 104.257 10.4238ZM111.798 17.209L112.703 17.4199V18H108.361V17.4199L109.258 17.209V6.30176L108.414 6.09082V5.51074H111.798V17.209ZM117.08 18.2549L113.775 10.5293L113.195 10.3184V9.73828H117.423V10.3184L116.438 10.5469L118.381 15.1172L120.112 10.5293L119.146 10.3184V9.73828H121.844V10.3184L121.246 10.4941L117.985 18.5186C117.61 19.4736 117.282 20.165 117.001 20.5928C116.72 21.0264 116.406 21.3486 116.061 21.5596C115.721 21.7764 115.331 21.8848 114.892 21.8848C114.417 21.8848 113.934 21.8291 113.441 21.7178V19.5908H113.969L114.347 20.6982C114.517 20.833 114.733 20.9004 114.997 20.9004C115.22 20.9004 115.416 20.8477 115.586 20.7422C115.756 20.6367 115.914 20.4844 116.061 20.2852C116.213 20.0859 116.356 19.8398 116.491 19.5469C116.626 19.2598 116.822 18.8291 117.08 18.2549Z" fill="#11142D"/>
</svg>
